<svg width="56" height="55" viewBox="0 0 56 55" fill="none" xmlns="http://www.w3.org/2000/svg">
<rect x="0.5" width="55" height="55" rx="8" fill="#E4ECF3"/>
<path d="M42.7083 24.5623H41.5V24.5H28V30.5H36.4773C35.2405 33.9928 31.9172 36.5 28 36.5C23.0297 36.5 19 32.4702 19 27.5C19 22.5297 23.0297 18.5 28 18.5C30.2943 18.5 32.3815 19.3655 33.9708 20.7792L38.2135 16.5365C35.5345 14.0397 31.951 12.5 28 12.5C19.7162 12.5 13 19.2162 13 27.5C13 35.7838 19.7162 42.5 28 42.5C36.2838 42.5 43 35.7838 43 27.5C43 26.4943 42.8965 25.5125 42.7083 24.5623Z" fill="#FFC107"/>
<path d="M14.7295 20.5182L19.6577 24.1325C20.9912 20.831 24.2207 18.5 28 18.5C30.2942 18.5 32.3815 19.3655 33.9707 20.7792L38.2135 16.5365C35.5345 14.0397 31.951 12.5 28 12.5C22.2385 12.5 17.242 15.7527 14.7295 20.5182Z" fill="#FF3D00"/>
<path d="M28 42.5C31.8745 42.5 35.395 41.0172 38.0567 38.606L33.4142 34.6775C31.8576 35.8613 29.9556 36.5015 28 36.5C24.0985 36.5 20.7857 34.0122 19.5377 30.5405L14.6462 34.3092C17.1287 39.167 22.1702 42.5 28 42.5Z" fill="#4CAF50"/>
<path d="M42.7083 24.5623H41.5V24.5H28V30.5H36.4773C35.8857 32.1623 34.82 33.6149 33.412 34.6782L33.4142 34.6768L38.0568 38.6052C37.7283 38.9037 43 35 43 27.5C43 26.4943 42.8965 25.5125 42.7083 24.5623Z" fill="#1976D2"/>
</svg>
